<svg id="Layer_1" data-name="Layer 1" xmlns="http://www.w3.org/2000/svg" viewBox="0 0 209.21 39.3"><defs><style>.cls-1,.cls-2{fill:#ff0001;}.cls-2{font-size:16px;font-family:NanumBarunGothicOTFBold, NanumBarunGothicOTFBold KSCpc-EUC-H;}.cls-3{font-size:7.2px;fill:gray;font-family:NanumBarunGothicOTF, NanumBarunGothicOTF KSCpc-EUC-H;letter-spacing:0.08em;}</style></defs><polygon class="cls-1" points="0.92 27.18 14.35 19.41 7.37 15.4 6.46 16.99 10.68 19.41 0 25.59 0.92 27.18"/><polygon class="cls-1" points="16.67 15.45 16.63 7.44 14.8 7.45 14.82 12.26 4.33 6.21 3.42 7.79 16.67 15.45"/><polygon class="cls-1" points="21.25 15.43 28.4 11.31 27.48 9.72 23.08 12.26 23.07 0 21.23 0 21.25 15.43"/><polygon class="cls-1" points="30.97 23.73 31.89 22.15 27.2 19.43 38.12 13.13 37.2 11.54 23.55 19.42 30.97 23.73"/><polygon class="cls-1" points="34.21 33.02 35.13 31.43 21.2 23.4 21.25 32.02 23.09 32.01 23.05 26.59 34.21 33.02"/><polygon class="cls-1" points="14.82 39.3 16.65 39.3 16.65 23.39 9.4 27.59 10.32 29.18 14.82 26.57 14.82 39.3"/><polygon class="cls-1" points="19.06 21.67 21.16 20.46 21.16 18.04 19.06 16.83 16.96 18.04 16.96 20.46 19.06 21.67"/><text class="cls-2" transform="translate(45.21 21.29)">루체테 글로벌 캠퍼스</text><text class="cls-3" transform="translate(46.21 33.72)"><tspan xml:space="preserve">L U C E T E  G L O B A L  C A M P U S</tspan></text></svg>